<?xml version='1.0' encoding='utf-8'?>
<svg xmlns="http://www.w3.org/2000/svg" width="513" height="513" viewBox="0 0 513 513" fill="none">
<path d="M308.902 112.796C299.754 116.753 293.774 120.838 281.763 131.314C279.761 133.064 277.404 135.17 276.492 136.007C275.58 136.844 272.894 139.229 270.537 141.334C265.9 145.444 262.352 148.64 256.98 153.51C255.105 155.21 252.546 157.493 251.279 158.584C250.037 159.674 248.187 161.323 247.224 162.237C245.476 163.885 238.102 170.455 235.593 172.637C234.884 173.246 233.389 174.565 232.274 175.58C231.159 176.569 228.599 178.852 226.572 180.653C224.545 182.454 221.884 184.864 220.617 186.005C213.674 192.322 201.587 203.179 198.217 206.147C196.848 207.339 193.25 210.586 190.184 213.376C187.118 216.167 183.596 219.363 182.354 220.479C181.087 221.595 180.023 222.559 179.947 222.661C179.871 222.737 178.173 224.259 176.146 226.06C174.118 227.836 171.838 229.89 171.078 230.601C170.317 231.311 168.822 232.655 167.783 233.568C166.744 234.482 164.312 236.663 162.361 238.388C160.435 240.113 158.103 242.193 157.166 243.03C156.254 243.842 154.024 245.846 152.199 247.495C150.4 249.144 144.977 253.989 140.163 258.276C131.319 266.19 129.393 267.915 124.351 272.481C122.805 273.877 120.575 275.881 119.384 276.921C118.193 277.961 117.179 278.874 117.103 278.95C116.926 279.153 112.618 282.983 107.575 287.448C98.8078 295.21 93.2583 301.654 87.9622 310.151C79.4987 323.774 71.7699 344.701 69.5907 359.871C69.3626 361.469 69.0586 363.524 68.9319 364.437C68.5001 367.05 68.349 379.708 68.6785 382.6C69.2866 387.851 70.7057 391.833 72.7835 394.218C74.8614 396.577 77.2941 397.541 80.715 397.363C82.4888 397.262 83.0209 397.135 84.6173 396.298C91.003 392.924 97.3634 383.31 100.962 371.54C103.192 364.31 103.952 360.505 107.221 340.465C109.729 325.169 110.413 321.541 111.655 316.493C114.519 305.053 119.13 295.971 126.378 287.575C128.785 284.784 132.282 281.182 134.461 279.178C137.553 276.413 140.315 273.927 141.303 273.09C141.86 272.634 142.823 271.797 143.457 271.213C144.09 270.655 145.332 269.564 146.219 268.803C147.131 268.042 148.778 266.596 149.893 265.632C150.983 264.643 152.883 263.02 154.074 262.005C155.265 260.99 156.938 259.544 157.774 258.809C158.61 258.073 161.854 255.257 164.996 252.568C168.138 249.879 171.61 246.835 172.725 245.846C173.84 244.857 177.995 241.255 181.948 237.83C193.529 227.861 204.07 218.703 213.142 210.738C214.054 209.952 217.298 207.136 220.364 204.498C223.43 201.885 226.522 199.196 227.206 198.562C227.915 197.928 229.562 196.482 230.855 195.366C234.757 192.017 240.332 187.198 247.123 181.262C257.234 172.409 270.461 160.943 272.564 159.218C273.147 158.736 274.896 157.265 276.391 155.945C304.873 131.416 317.467 122.892 328.034 121.015C330.796 120.533 332.291 120.559 334.597 121.167C341.768 122.994 344.606 129.234 343.263 140.319C342.782 144.404 341.945 150.086 341.388 153.003C341.261 153.688 340.957 155.362 340.729 156.681C340.501 158 340.172 159.877 339.969 160.867C339.285 164.367 337.435 175.554 336.548 181.668C332.367 210.383 330.72 232.199 331.455 249.905C331.936 261.726 332.747 270.046 334.394 279.965C335.053 283.973 336.345 290.67 336.801 292.521C336.928 293.079 337.384 295.083 337.79 296.961C338.22 298.838 338.753 301.07 338.955 301.907C339.183 302.744 339.639 304.52 339.994 305.839C342.604 315.808 347.444 329.278 351.245 337.117C356.009 346.908 359.607 352.337 364.65 357.359C369.287 361.976 372.886 363.879 377.954 364.335C384.922 364.97 393.943 360.429 401.875 352.311C413.024 340.896 419.233 326.868 419.233 312.942C419.258 307.057 418.346 302.744 416.116 298.026C414.469 294.551 412.593 291.963 409.806 289.274C406.334 285.926 403.142 284.023 397.998 282.298C393.512 280.776 390.472 280.32 382.54 279.965C370.63 279.432 364.321 277.885 358.087 273.927C356.085 272.684 352.766 269.209 351.676 267.281C350.08 264.389 349.598 262.182 349.598 257.642C349.623 252.315 350.51 248.586 353.171 243.056C354.869 239.454 359.861 231.412 362.319 228.216C362.699 227.734 364.295 225.679 365.866 223.65C367.438 221.621 370.681 217.562 373.038 214.645C380.386 205.614 386.316 198.258 386.848 197.547C387.127 197.192 389.053 194.833 391.156 192.296C397.009 185.244 400.481 181.008 401.038 180.247C401.317 179.867 402.229 178.674 403.091 177.558C407.703 171.597 410.921 166.143 412.391 161.704C413.455 158.533 413.86 155.844 414.063 150.847C414.241 146.433 414.291 146.078 414.975 144.683C416.724 141.055 421.285 139.837 425.694 141.841C432.207 144.809 433.93 153.028 429.875 161.755C429.039 163.556 424.63 170.405 422.881 172.662C422.628 173.017 420.55 175.935 418.295 179.156C414.317 184.915 410.769 189.912 407.627 194.224C406.765 195.417 404.459 198.664 402.508 201.454C400.582 204.244 397.693 208.354 396.097 210.586C376.433 238.287 373.798 242.625 372.556 249.626C371.72 254.243 372.886 258.53 375.774 261.345C376.788 262.36 377.878 263.096 379.727 263.984C382.819 265.455 384.365 265.886 388.495 266.393C393.107 266.977 394.577 267.205 397.06 267.814C410.592 271.086 421.691 279.153 428.583 290.695C430.002 293.105 432.055 297.366 432.688 299.294C434.842 305.738 435.628 310.633 435.628 317.33C435.628 325.473 434.056 332.576 430.255 341.48C424.503 355 412.898 369.409 399.771 379.327C390.852 386.075 381.805 390.438 372.936 392.264C368.781 393.127 363.383 393.228 360.418 392.518C356.009 391.478 351.575 389.17 348.508 386.405C347.267 385.263 344.15 381.458 343.01 379.657C340.906 376.385 338.043 370.246 336.675 366.111C335.408 362.255 333.406 354.163 332.772 350.358C332.62 349.521 332.342 347.872 332.113 346.68C331.911 345.488 331.429 342.52 331.075 340.084C330.314 334.757 329.453 331.13 328.465 328.999C325.474 322.632 320.077 319.055 312.475 318.396C310.676 318.244 292.76 318.472 261.922 319.03C254.396 319.157 239.749 319.385 229.36 319.537C218.97 319.689 201.258 319.968 189.981 320.171C171.179 320.501 169.405 320.476 168.442 320.121C166.339 319.284 165.579 318.624 164.717 316.874C163.982 315.352 163.932 315.098 164.058 313.5C164.438 309.568 166.618 304.951 170.672 299.624C177.691 290.34 189.829 282.096 201.739 278.519C208.277 276.566 212.787 276.185 225.052 276.642C232.375 276.895 237.038 277.022 261.161 277.707C282.472 278.291 288.478 277.098 294.357 271.188C296.257 269.26 297.651 266.647 298.589 263.349L299.171 261.32L299.247 231.894C299.323 201.124 299.247 198.258 298.259 195.214C297.043 191.535 294.382 188.644 290.961 187.299C289.416 186.716 288.807 186.614 286.577 186.614C280.521 186.64 274.237 189.354 261.82 197.344C249.328 205.36 234.377 216.953 213.649 234.659C211.343 236.613 208.277 239.225 206.807 240.494C203.057 243.69 198.115 247.926 196.037 249.753C195.075 250.59 192.845 252.518 191.122 254.014C189.373 255.536 187.321 257.312 186.535 258.022C185.749 258.707 184.33 259.976 183.367 260.813C182.405 261.65 180.453 263.375 179.06 264.618C177.666 265.886 175.563 267.763 174.372 268.803C169.177 273.344 160.967 281.791 157.369 286.306C154.809 289.528 149.209 297.722 147.081 301.4C145.079 304.85 139.403 316.468 139.403 317.102C139.403 317.28 139.301 317.508 139.174 317.635C139.048 317.787 138.718 318.523 138.44 319.284C138.161 320.045 137.071 322.835 136.032 325.498C134.993 328.137 133.093 333.109 131.8 336.533C130.508 339.958 128.734 344.625 127.847 346.934C124.427 355.913 117.965 373.696 116.292 378.744C113.53 387.115 112.795 390.26 112.795 393.609C112.795 396.881 113.682 398.911 115.963 400.915C122.045 406.267 133.625 403.933 142.469 395.587C143.913 394.218 147.41 390.438 151.414 385.897C152.655 384.477 154.378 382.523 155.24 381.56C156.127 380.57 157.394 379.15 158.053 378.363C158.737 377.577 161.347 374.609 163.856 371.768C170.951 363.752 172.319 362.179 177.641 356.066C184.001 348.735 186.358 346.325 187.954 345.412C190.716 343.813 188.207 343.89 236.582 343.89C284.348 343.89 282.523 343.839 285.31 345.259C287.718 346.477 288.833 347.974 289.897 351.373C294.737 366.593 302.238 378.313 313.489 388.206C320.406 394.268 330.922 399.849 340.096 402.31C347.039 404.162 350.282 404.567 357.707 404.593C363.89 404.593 367.944 404.162 373.544 402.842C385.53 400.027 396.959 394.218 408.058 385.339C411.58 382.523 420.702 373.544 423.363 370.271C432.435 359.16 437.908 349.267 441.582 337.472C444.775 327.173 445.383 314.667 443.23 304.063C441.481 295.54 436.641 285.444 431.244 279.077C421.006 267.028 408.488 260.432 391.536 258.149C387.355 257.591 385.885 257.109 383.959 255.638C381.983 254.141 381.324 250.438 382.413 246.937C383.224 244.324 384.035 243.056 395.996 226.187C398.631 222.483 399.695 220.986 404.586 214.137C405.676 212.59 407.804 209.622 409.274 207.542C410.769 205.436 413.886 201.048 416.242 197.776C418.599 194.503 421.564 190.318 422.831 188.517C424.098 186.69 427.519 181.845 430.433 177.736C439.429 165.002 441.532 161.552 442.951 157.265C445.434 149.908 444.066 142.679 439.099 136.895C436.514 133.876 434.234 132.126 430.154 130.071C427.113 128.549 425.162 127.94 419.283 126.723C418.726 126.621 416.344 126.114 413.962 125.607C411.605 125.099 405.498 123.831 400.405 122.791C389.863 120.635 389.889 120.635 385.961 119.798C373.646 117.159 369.541 116.297 365.562 115.485C363.054 114.978 359.683 114.268 358.087 113.938C336.7 109.372 338.068 109.676 334.774 109.093C332.037 108.636 326.108 108.433 323.625 108.738C318.987 109.321 313.362 110.868 308.902 112.796ZM279.026 243.893C279.432 249.803 280.293 260.889 280.547 263.628C280.952 268.194 280.901 268.879 280.09 269.767C278.899 271.036 278.241 271.086 269.549 270.807C265.216 270.655 258.703 270.452 255.08 270.376L248.491 270.198L248.162 269.488C247.452 267.992 246.388 269.361 266.762 245.339C272.007 239.149 271.601 239.58 272.818 238.769C274.034 237.932 275.428 237.906 276.796 238.667C278.418 239.58 278.798 240.468 279.026 243.893Z" fill="#FBEDE0" />
</svg>